<?xml version="1.0" standalone="no"?>
<!DOCTYPE svg PUBLIC "-//W3C//DTD SVG 20010904//EN"
 "http://www.w3.org/TR/2001/REC-SVG-20010904/DTD/svg10.dtd">
<svg version="1.0" xmlns="http://www.w3.org/2000/svg"
 width="256.000000pt" height="256.000000pt" viewBox="0 0 256.000000 256.000000"
 preserveAspectRatio="xMidYMid meet">
<metadata>
Created by potrace 1.11, written by Peter Selinger 2001-2013
</metadata>
<g transform="translate(0.000000,256.000000) scale(0.100000,-0.100000)"
fill="#000000" stroke="none">
<path d="M238 2542 c-6 -22 16 -44 35 -36 15 5 31 -22 21 -37 -8 -13 10 -11
41 5 l28 14 -29 5 c-28 4 -28 5 -6 12 27 9 29 25 2 25 -13 0 -18 5 -14 15 5
12 -2 15 -34 15 -30 0 -41 -4 -44 -18z m37 -2 c-3 -5 -10 -10 -16 -10 -5 0 -9
5 -9 10 0 6 7 10 16 10 8 0 12 -4 9 -10z"/>
<path d="M1030 2550 c-57 -13 -127 -55 -187 -112 -187 -178 -203 -196 -203
-226 0 -16 -3 -32 -7 -36 -5 -4 -9 -33 -9 -64 -2 -56 -3 -58 -71 -127 -74 -75
-105 -138 -123 -249 -5 -29 -13 -71 -19 -92 -5 -22 -13 -131 -16 -243 -5 -156
-10 -207 -21 -218 -8 -8 -18 -11 -24 -8 -12 7 -13 -5 -2 -21 10 -16 52 -28 52
-15 0 6 -5 11 -11 11 -5 0 -7 5 -3 11 9 15 17 3 48 -76 15 -38 32 -78 37 -87
14 -28 11 -31 -23 -25 -18 3 -27 3 -20 0 10 -4 9 -8 -5 -19 -16 -12 -11 -13
44 -14 57 0 63 -2 87 -32 14 -18 21 -34 16 -36 -6 -2 -4 -12 4 -23 8 -11 11
-29 9 -40 -7 -25 15 -69 34 -69 27 0 11 -42 -39 -108 -29 -36 -68 -81 -86 -99
-18 -18 -30 -38 -27 -44 4 -5 1 -16 -7 -22 -25 -21 -94 -110 -140 -182 -41
-63 -158 -259 -166 -277 -2 -5 109 -8 247 -8 221 0 251 2 251 16 0 8 -4 12
-10 9 -6 -4 -8 5 -5 22 3 15 10 57 17 93 17 96 21 199 11 287 -7 65 -2 260 6
243 1 -3 3 -33 4 -68 2 -49 6 -66 20 -73 9 -6 14 -15 11 -21 -4 -6 -1 -14 6
-18 9 -6 9 -13 1 -28 -14 -26 -14 -82 -1 -82 6 0 10 -16 10 -35 0 -19 6 -40
14 -47 12 -11 11 -17 -4 -38 -19 -28 -32 -60 -24 -60 2 0 15 6 27 14 31 20
133 37 160 27 52 -20 48 -34 -16 -66 -34 -16 -64 -31 -66 -32 -4 -3 59 -63 66
-63 2 0 2 4 -2 10 -5 8 81 40 107 40 12 0 10 -58 -2 -65 -6 -3 -10 -15 -10
-25 0 -10 -8 -24 -17 -29 -13 -7 41 -10 183 -11 l201 0 13 28 c8 15 19 34 26
42 6 8 28 49 50 90 21 41 50 93 64 115 15 22 41 70 59 108 18 37 36 67 41 67
5 0 19 20 30 45 11 25 25 45 30 45 5 0 12 10 15 23 3 12 33 77 66 145 34 67
59 127 57 132 -2 6 -27 -29 -55 -77 -78 -132 -253 -303 -309 -303 -17 0 -45
-30 -39 -41 12 -18 -55 -98 -83 -99 -7 0 -19 -6 -27 -13 -51 -43 -82 -77 -92
-100 -7 -15 -19 -27 -27 -27 -7 0 -19 -7 -26 -15 -7 -8 -16 -13 -20 -10 -4 2
-21 0 -38 -4 -30 -9 -32 -7 -56 40 -30 56 -34 84 -10 75 8 -3 12 -2 9 4 -3 5
4 14 15 20 11 6 20 17 20 25 0 8 11 26 25 41 14 15 23 34 21 41 -3 7 1 13 9
13 16 0 21 15 8 23 -5 2 -3 3 2 2 6 -1 23 11 38 26 16 17 23 29 15 29 -9 1 -7
5 5 14 9 7 17 18 17 24 0 5 12 13 26 16 17 5 24 12 20 22 -6 14 65 75 210 178
126 90 135 98 130 111 -2 7 2 16 10 19 10 4 13 2 8 -7 -4 -6 -3 -8 1 -4 5 4
10 15 12 25 7 37 11 157 5 167 -3 5 -7 28 -8 50 -4 73 -21 148 -36 159 -8 6
-16 16 -18 21 -9 33 -22 57 -49 87 -25 28 -30 43 -32 94 -2 44 2 68 14 85 9
13 17 31 17 40 0 9 9 24 19 33 11 10 17 24 14 32 -3 8 1 14 9 14 8 0 22 18 32
40 l17 40 -27 35 c-14 19 -30 35 -35 35 -5 0 -9 9 -9 21 0 11 -4 17 -10 14 -5
-3 -10 3 -10 14 0 12 -4 21 -10 21 -5 0 -17 16 -26 35 -9 19 -20 35 -25 35 -5
0 -9 7 -9 15 0 9 -11 21 -25 27 -14 6 -25 17 -25 24 0 7 -6 15 -12 18 -10 5
-10 7 0 12 7 4 12 27 12 62 -1 55 -16 92 -38 92 -15 0 -32 33 -32 64 0 16 6
26 15 26 11 0 14 10 11 40 -3 32 0 42 16 51 18 10 18 12 4 28 -9 10 -16 26
-16 35 0 10 -11 27 -25 38 -14 11 -25 26 -25 34 0 8 -4 13 -9 10 -5 -4 -22 -1
-38 5 -37 14 -168 20 -213 9z m390 -750 c0 -5 -4 -10 -9 -10 -6 0 -13 5 -16
10 -3 6 1 10 9 10 9 0 16 -4 16 -10z m-35 -51 c-4 -5 -13 -9 -22 -9 -13 0 -13
3 -3 15 13 15 35 11 25 -6z m-354 -31 c7 -13 27 -38 46 -56 22 -23 33 -44 33
-62 0 -16 3 -35 6 -44 4 -11 1 -16 -10 -16 -9 0 -16 -4 -16 -10 0 -9 15 -14
33 -11 5 1 6 -3 3 -8 -4 -5 -2 -12 4 -16 5 -3 10 -13 10 -21 0 -20 -37 -18
-68 4 -15 10 -34 17 -42 17 -8 -1 -28 -3 -43 -3 -16 -1 -25 -6 -22 -12 3 -5 1
-10 -6 -10 -11 0 -10 57 5 167 6 47 31 103 46 103 5 0 15 -10 21 -22z m110
-534 c7 -4 9 -23 6 -45 -3 -22 -2 -39 3 -39 4 0 10 -15 13 -32 7 -47 -13 -64
-73 -67 -43 -1 -52 2 -66 24 -13 20 -14 28 -4 40 19 23 5 30 -63 30 -48 0 -62
3 -62 15 0 8 -10 16 -22 18 -13 2 -23 8 -23 13 0 5 -8 9 -17 9 -16 0 -16 1 0
17 14 14 21 15 36 6 15 -10 22 -9 31 2 6 8 21 15 33 17 36 6 197 -1 208 -8z
m-261 -74 c0 -5 -4 -10 -10 -10 -5 0 -10 5 -10 10 0 6 5 10 10 10 6 0 10 -4
10 -10z m225 -970 c3 -5 1 -10 -4 -10 -6 0 -11 5 -11 10 0 6 2 10 4 10 3 0 8
-4 11 -10z"/>
<path d="M1060 1540 c0 -5 5 -10 10 -10 6 0 10 5 10 10 0 6 -4 10 -10 10 -5 0
-10 -4 -10 -10z"/>
<path d="M1836 2546 c7 -19 38 -22 32 -3 -3 6 -12 13 -21 15 -12 2 -15 -1 -11
-12z"/>
<path d="M1951 2546 c-16 -19 -11 -29 8 -17 7 5 12 14 9 21 -3 9 -8 7 -17 -4z"/>
<path d="M338 2463 c-19 -5 -25 -33 -8 -33 6 0 10 5 10 10 0 6 9 10 21 10 11
0 17 5 14 10 -6 10 -9 11 -37 3z"/>
<path d="M1870 2425 c0 -14 -6 -16 -31 -11 -26 5 -30 3 -25 -10 3 -9 6 -17 6
-18 0 -2 11 -1 25 2 18 3 30 -1 40 -14 7 -11 17 -15 21 -11 5 4 4 11 -1 15 -6
4 -10 18 -10 31 0 13 -6 26 -12 29 -7 2 -13 -4 -13 -13z"/>
<path d="M268 2423 c7 -3 16 -2 19 1 4 3 -2 6 -13 5 -11 0 -14 -3 -6 -6z"/>
<path d="M319 2403 c-6 -7 -18 -13 -26 -13 -10 0 -13 -6 -9 -16 3 -9 6 -20 6
-25 0 -5 6 -9 14 -9 10 0 12 7 8 22 -3 13 -1 19 5 15 6 -4 13 0 16 7 3 8 18
16 34 18 28 3 28 3 -5 9 -21 4 -36 1 -43 -8z"/>
<path d="M25 2331 c3 -5 -3 -12 -12 -14 -11 -3 -8 -5 9 -6 20 -1 26 3 22 14
-4 8 -10 15 -16 15 -5 0 -7 -4 -3 -9z"/>
<path d="M305 2315 c-25 -14 -39 -29 -38 -40 1 -13 -5 -16 -27 -13 -23 3 -28
1 -27 -14 1 -10 7 -18 14 -18 18 0 16 -17 -3 -24 -11 -4 -13 -13 -9 -27 11
-32 12 -79 3 -79 -4 0 -8 7 -8 15 0 9 -7 18 -15 21 -9 4 -22 18 -31 33 -11 20
-13 21 -9 5 3 -13 -1 -26 -10 -34 -8 -7 -15 -18 -15 -25 0 -7 -7 -18 -15 -25
-14 -12 -14 -15 1 -31 10 -11 15 -20 13 -22 -51 -30 -52 -30 -45 -4 4 16 1 27
-7 30 -8 3 -5 10 9 21 20 14 50 76 38 76 -10 0 -31 -26 -38 -47 -5 -15 -13
-19 -26 -16 -11 3 -20 9 -20 14 0 5 7 6 15 3 11 -5 15 1 15 19 0 16 -7 26 -20
30 -13 3 -20 13 -20 29 1 22 1 22 15 4 15 -19 45 -31 45 -18 -1 14 -39 52 -52
52 -8 0 -19 5 -26 12 -9 9 -12 -19 -12 -127 0 -77 4 -135 8 -129 4 6 23 11 44
10 25 -1 33 -4 27 -12 -5 -7 -1 -19 13 -34 12 -12 15 -20 7 -16 -8 3 -22 9
-31 12 -10 4 -18 10 -18 14 0 4 -11 7 -25 6 -27 -1 -33 -11 -12 -19 9 -4 9 -6
0 -6 -7 -1 -13 -8 -13 -16 0 -8 8 -14 18 -13 9 1 33 0 52 -1 26 -1 31 -4 20
-11 -22 -13 -6 -22 44 -24 24 -1 53 -9 63 -17 17 -13 17 -13 0 14 -18 29 -18
29 5 25 18 -2 23 -10 25 -33 0 -16 2 -34 2 -38 1 -4 10 -3 21 3 11 6 19 14 19
18 -4 22 3 31 19 26 14 -5 14 -3 -2 10 -18 15 -13 16 73 13 51 -2 94 -1 95 2
2 3 0 15 -5 26 -4 11 -8 15 -8 9 -1 -12 -71 -18 -71 -6 0 19 42 72 52 66 6 -4
8 -3 5 3 -4 6 2 22 13 36 21 26 27 87 9 87 -6 0 -8 15 -4 44 6 35 4 44 -10 50
-12 4 -16 14 -12 31 3 21 -2 28 -29 41 -19 9 -34 22 -34 30 0 23 -14 23 -55
-1z m-118 -201 c-3 -3 -12 -4 -19 -1 -8 3 -5 6 6 6 11 1 17 -2 13 -5z m-2 -34
c-3 -5 1 -10 9 -10 9 0 16 5 16 11 0 6 8 9 17 7 12 -2 17 -14 18 -38 0 -19 4
-40 8 -46 4 -7 0 -14 -8 -18 -8 -3 -15 -1 -15 4 0 6 -4 10 -9 10 -4 0 -25 16
-45 35 -38 36 -40 55 -5 55 11 0 17 -4 14 -10z m220 0 c3 -5 1 -10 -4 -10 -6
0 -11 5 -11 10 0 6 2 10 4 10 3 0 8 -4 11 -10z m-245 -60 c0 -5 -4 -10 -10
-10 -5 0 -10 5 -10 10 0 6 5 10 10 10 6 0 10 -4 10 -10z m8 -32 c16 -16 15
-25 -4 -32 -13 -5 -15 -2 -11 13 4 17 2 18 -19 11 -18 -7 -22 -6 -17 5 6 18
35 19 51 3z m-18 -88 c8 -5 12 -11 9 -14 -7 -8 -49 5 -49 15 0 12 21 11 40 -1z"/>
<path d="M142 2301 c2 -7 7 -12 11 -12 12 1 9 15 -3 20 -7 2 -11 -2 -8 -8z"/>
<path d="M80 2290 c0 -5 5 -10 10 -10 6 0 10 5 10 10 0 6 -4 10 -10 10 -5 0
-10 -4 -10 -10z"/>
<path d="M445 2290 c4 -6 11 -8 16 -5 14 9 11 15 -7 15 -8 0 -12 -5 -9 -10z"/>
<path d="M1852 2253 c2 -10 10 -17 18 -15 7 2 17 -3 21 -10 4 -7 11 -10 14 -6
8 8 -31 48 -46 48 -6 0 -9 -8 -7 -17z"/>
<path d="M457 2253 c-12 -11 -8 -23 8 -23 8 0 15 7 15 15 0 16 -12 20 -23 8z"/>
<path d="M2050 2250 c-9 -6 -10 -10 -3 -10 6 0 15 5 18 10 8 12 4 12 -15 0z"/>
<path d="M120 2239 c0 -5 5 -7 10 -4 6 3 10 8 10 11 0 2 -4 4 -10 4 -5 0 -10
-5 -10 -11z"/>
<path d="M2091 2233 c0 -5 3 -16 7 -25 6 -15 9 -14 19 7 10 22 9 25 -8 25 -10
0 -19 -3 -18 -7z"/>
<path d="M90 2215 c0 -8 5 -15 10 -15 6 0 10 7 10 15 0 8 -4 15 -10 15 -5 0
-10 -7 -10 -15z"/>
<path d="M1918 2194 c-2 -5 -4 -21 -3 -36 1 -32 -10 -37 -18 -8 -9 34 -30 24
-23 -11 3 -17 11 -71 18 -119 l11 -88 36 -5 c26 -3 41 1 54 15 22 22 14 38
-18 38 -28 0 -37 11 -25 30 7 11 11 11 24 1 9 -8 16 -9 16 -3 0 6 10 8 23 4
21 -5 21 -4 5 14 -21 24 -28 78 -10 79 14 0 32 23 32 43 0 20 -17 14 -23 -9
-5 -18 -8 -19 -26 -7 -14 9 -19 19 -15 33 4 16 3 17 -5 5 -10 -13 -14 -12 -30
9 -10 13 -20 20 -23 15z m63 -114 c5 0 9 -9 9 -19 0 -14 -7 -19 -25 -17 -29 1
-29 3 -12 39 8 17 13 22 15 12 2 -8 8 -15 13 -15z"/>
<path d="M2152 2147 c-7 -8 -9 -17 -5 -20 3 -4 1 -7 -6 -7 -15 0 -3 -52 15
-63 9 -5 10 -15 5 -29 -9 -25 15 -82 30 -72 6 3 8 13 5 21 -4 10 -2 13 7 10
29 -11 38 8 21 41 -8 17 -12 37 -8 44 5 8 2 9 -11 4 -28 -10 -59 28 -45 55 14
25 8 35 -8 16z"/>
<path d="M590 2120 c0 -11 4 -20 8 -20 4 0 8 9 9 20 1 11 -2 20 -8 20 -5 0 -9
-9 -9 -20z"/>
<path d="M2041 2090 c-15 -13 -18 -20 -9 -20 8 0 23 9 33 20 23 26 7 25 -24 0z"/>
<path d="M2440 2059 c0 -33 3 -35 24 -13 21 21 20 31 -4 37 -17 4 -20 0 -20
-24z"/>
<path d="M2090 2059 c0 -5 5 -7 10 -4 6 3 10 8 10 11 0 2 -4 4 -10 4 -5 0 -10
-5 -10 -11z"/>
<path d="M2112 2031 c-8 -22 -7 -31 1 -34 13 -4 40 41 31 54 -10 17 -22 9 -32
-20z"/>
<path d="M2510 2039 c0 -5 5 -7 10 -4 6 3 10 8 10 11 0 2 -4 4 -10 4 -5 0 -10
-5 -10 -11z"/>
<path d="M2150 1914 c0 -8 5 -12 10 -9 6 3 10 10 10 16 0 5 -4 9 -10 9 -5 0
-10 -7 -10 -16z"/>
<path d="M2003 1902 c3 -13 1 -20 -5 -16 -18 12 -68 15 -68 5 0 -6 -8 -8 -17
-5 -15 5 -16 4 -3 -5 8 -6 53 -11 100 -11 63 1 80 3 67 11 -9 5 -22 7 -27 4
-6 -4 -20 4 -31 17 l-21 23 5 -23z"/>
<path d="M20 1891 c14 -4 24 -13 23 -19 -2 -7 3 -12 10 -12 7 0 13 9 14 20 2
17 -4 20 -35 19 -33 -1 -34 -2 -12 -8z"/>
<path d="M2140 1881 l-35 -7 45 -6 c25 -4 92 -7 150 -6 l105 0 -85 8 c-47 4
-98 9 -115 12 -16 3 -46 3 -65 -1z"/>
<path d="M68 1853 c-10 -2 -18 -13 -18 -23 0 -11 -10 -20 -25 -24 -14 -4 -25
-11 -25 -16 0 -14 18 -12 23 3 3 9 9 9 24 0 12 -6 37 -15 57 -18 20 -4 33 -11
30 -16 -3 -5 1 -6 9 -3 20 7 9 45 -15 51 -10 3 -18 12 -18 20 0 9 -6 13 -15 9
-8 -3 -15 -1 -15 3 0 5 6 12 13 14 15 7 -2 6 -25 0z"/>
<path d="M2452 1855 c3 -3 29 -7 59 -10 37 -3 48 -2 34 4 -21 10 -102 15 -93
6z"/>
<path d="M145 1840 c-4 -6 6 -10 22 -10 22 0 25 2 13 10 -19 12 -27 12 -35 0z"/>
<path d="M240 1790 c0 -13 5 -20 13 -17 6 2 12 10 12 17 0 7 -6 15 -12 18 -8
2 -13 -5 -13 -18z"/>
<path d="M42 1743 c2 -22 8 -28 26 -27 l22 1 -21 -20 c-15 -14 -18 -22 -10
-30 8 -8 14 -7 23 4 7 8 12 12 11 10 -1 -2 2 -12 8 -23 9 -17 8 -19 -9 -14
-11 4 -23 2 -27 -4 -4 -7 2 -14 14 -17 12 -3 21 -9 21 -14 0 -5 7 -9 15 -9 8
0 15 -4 15 -10 0 -5 5 -10 11 -10 5 0 8 4 5 9 -11 17 5 39 35 50 31 11 40 31
13 31 -9 0 -12 5 -8 12 5 7 3 8 -6 3 -15 -9 -30 12 -23 32 3 7 12 13 21 13 12
0 13 3 4 12 -8 8 -15 8 -27 -2 -12 -10 -19 -9 -39 4 -18 11 -26 12 -29 3 -3
-7 -6 -5 -6 6 -1 10 -9 17 -22 17 -16 0 -20 -5 -17 -27z m94 -40 c16 -21 18
-43 4 -43 -5 0 -10 8 -10 18 0 10 -5 23 -12 30 -7 7 -8 12 -4 12 5 0 15 -8 22
-17z"/>
<path d="M195 1710 c3 -5 13 -10 21 -10 8 0 14 5 14 10 0 6 -9 10 -21 10 -11
0 -17 -4 -14 -10z"/>
<path d="M1834 1705 c-9 -22 1 -29 15 -11 8 10 9 16 1 21 -5 3 -13 -1 -16 -10z"/>
<path d="M2 1681 c0 -16 6 -35 14 -42 12 -10 13 -6 8 22 -9 46 -21 57 -22 20z"/>
<path d="M1905 1671 c-3 -5 -1 -12 3 -15 5 -3 15 -33 22 -66 7 -33 17 -60 21
-60 10 0 12 110 3 134 -7 17 -39 22 -49 7z"/>
<path d="M2030 1661 c0 -5 5 -13 10 -16 6 -3 10 -2 10 4 0 5 -4 13 -10 16 -5
3 -10 2 -10 -4z"/>
<path d="M0 1584 c1 -44 18 -73 39 -66 8 2 11 1 8 -4 -10 -17 18 -41 53 -46
19 -4 43 -9 53 -13 12 -5 17 -2 17 9 0 10 -9 16 -25 16 -20 0 -24 4 -21 23 4
27 -21 67 -41 67 -8 0 -17 9 -20 20 -6 23 -19 26 -27 8 -3 -9 -9 -7 -20 6 -15
19 -16 18 -16 -20z m60 -45 c0 -5 -9 -9 -20 -9 -19 0 -26 11 -14 23 8 8 34 -3
34 -14z m50 -28 c0 -5 -7 -14 -15 -21 -12 -10 -15 -10 -15 2 0 8 3 18 7 21 9
10 23 9 23 -2z"/>
<path d="M172 1598 c-17 -17 -15 -25 7 -31 14 -3 19 1 19 19 0 27 -8 30 -26
12z"/>
<path d="M2055 1580 c3 -5 11 -10 16 -10 6 0 7 5 4 10 -3 6 -11 10 -16 10 -6
0 -7 -4 -4 -10z"/>
<path d="M1805 1550 c-3 -5 -3 -19 0 -30 4 -11 8 -42 10 -70 3 -44 1 -51 -22
-68 l-27 -19 23 -8 c17 -5 29 -1 48 17 13 12 32 22 42 20 32 -5 54 32 46 77
-6 36 -12 43 -53 63 -26 12 -50 24 -54 26 -3 1 -9 -2 -13 -8z"/>
<path d="M2058 1552 c-10 -2 -18 -8 -18 -13 0 -11 11 -11 30 1 18 11 11 18
-12 12z"/>
<path d="M185 1540 c-4 -6 5 -10 20 -10 14 0 28 -7 31 -15 4 -8 10 -13 15 -10
4 3 6 12 3 20 -4 8 -10 12 -15 9 -5 -3 -9 0 -9 5 0 14 -37 14 -45 1z"/>
<path d="M147 1515 c-4 -9 5 -20 25 -30 41 -20 48 -11 14 20 -32 29 -32 29
-39 10z"/>
<path d="M1960 1460 c0 -5 5 -10 10 -10 6 0 10 5 10 10 0 6 -4 10 -10 10 -5 0
-10 -4 -10 -10z"/>
<path d="M7 1453 c7 -2 19 -2 26 0 6 3 1 5 -13 5 -14 0 -19 -2 -13 -5z"/>
<path d="M250 1431 c0 -6 5 -13 10 -16 6 -3 10 1 10 9 0 9 -4 16 -10 16 -5 0
-10 -4 -10 -9z"/>
<path d="M1960 1436 c0 -2 9 -6 20 -9 11 -3 18 -1 14 4 -5 9 -34 13 -34 5z"/>
<path d="M2285 1430 c3 -5 8 -10 11 -10 2 0 4 5 4 10 0 6 -5 10 -11 10 -5 0
-7 -4 -4 -10z"/>
<path d="M16 1404 c-23 -22 -20 -43 4 -37 11 3 20 9 20 13 0 5 3 15 6 24 8 21
-10 21 -30 0z"/>
<path d="M154 1396 c-4 -10 -2 -22 5 -29 6 -6 11 -21 11 -34 0 -13 5 -23 10
-23 20 0 20 25 0 64 -15 31 -21 36 -26 22z"/>
<path d="M206 1402 c-3 -6 -1 -14 5 -17 15 -10 25 3 12 16 -7 7 -13 7 -17 1z"/>
<path d="M1780 1399 c0 -5 5 -7 10 -4 6 3 10 8 10 11 0 2 -4 4 -10 4 -5 0 -10
-5 -10 -11z"/>
<path d="M1987 1403 c-4 -3 -7 -11 -7 -17 0 -6 5 -5 12 2 6 6 9 14 7 17 -3 3
-9 2 -12 -2z"/>
<path d="M67 1383 c-4 -3 -7 -11 -7 -17 0 -6 5 -5 12 2 6 6 9 14 7 17 -3 3 -9
2 -12 -2z"/>
<path d="M263 1348 c0 -7 -3 -34 -7 -60 -5 -33 -4 -48 4 -48 6 0 15 -10 20
-22 l9 -23 7 23 c3 12 11 22 16 22 6 0 6 6 -1 14 -10 11 -8 17 6 25 16 9 15
10 -9 11 -16 0 -28 5 -28 10 0 6 6 10 13 10 7 0 13 9 14 21 1 14 -3 19 -13 15
-8 -3 -14 -1 -14 4 0 6 -4 10 -8 10 -5 0 -9 -6 -9 -12z m27 -77 c0 -17 -18
-21 -24 -6 -3 9 0 15 9 15 8 0 15 -4 15 -9z"/>
<path d="M90 1335 c0 -8 4 -15 10 -15 5 0 7 7 4 15 -4 8 -8 15 -10 15 -2 0 -4
-7 -4 -15z"/>
<path d="M1785 1320 c3 -5 11 -10 16 -10 6 0 7 5 4 10 -3 6 -11 10 -16 10 -6
0 -7 -4 -4 -10z"/>
<path d="M1747 1294 c-4 -4 -7 -19 -7 -33 0 -21 5 -27 25 -29 23 -2 24 0 13
26 -15 35 -23 44 -31 36z"/>
<path d="M344 1240 c4 -45 12 -59 26 -44 11 12 -2 76 -18 82 -8 2 -11 -9 -8
-38z"/>
<path d="M90 1240 c0 -5 5 -10 11 -10 5 0 7 5 4 10 -3 6 -8 10 -11 10 -2 0 -4
-4 -4 -10z"/>
<path d="M65 1231 c-4 -7 -4 -16 1 -20 15 -10 16 -34 2 -43 -10 -7 -10 -9 2
-5 16 4 21 31 10 61 -5 15 -9 16 -15 7z"/>
<path d="M185 1200 c-3 -6 1 -7 9 -4 18 7 21 14 7 14 -6 0 -13 -4 -16 -10z"/>
<path d="M275 1180 c-3 -5 -2 -10 4 -10 5 0 13 5 16 10 3 6 2 10 -4 10 -5 0
-13 -4 -16 -10z"/>
<path d="M1906 1182 c-3 -6 -1 -14 5 -17 15 -10 25 3 12 16 -7 7 -13 7 -17 1z"/>
<path d="M3 1124 c-2 -25 1 -34 12 -34 18 0 20 43 3 58 -10 8 -14 2 -15 -24z"/>
<path d="M54 1128 c-5 -7 -9 -22 -9 -33 0 -13 -8 -21 -22 -23 -16 -2 -23 -10
-22 -25 1 -17 2 -18 6 -4 3 11 14 17 35 17 17 0 40 -8 51 -17 19 -17 20 -17
15 5 -4 12 -2 22 3 22 5 0 9 5 9 11 0 6 -9 9 -20 6 -11 -3 -18 -1 -14 4 3 5
-1 18 -9 30 -12 16 -17 18 -23 7z"/>
<path d="M1937 1123 c-4 -3 -7 -11 -7 -17 0 -6 5 -5 12 2 6 6 9 14 7 17 -3 3
-9 2 -12 -2z"/>
<path d="M193 1110 c2 -8 1 -25 -4 -36 -6 -18 -3 -23 14 -28 23 -6 40 4 20 11
-7 3 -13 12 -13 21 0 10 -5 24 -11 32 -9 13 -10 13 -6 0z"/>
<path d="M1956 1094 c-10 -25 1 -29 14 -5 6 12 7 21 1 21 -5 0 -12 -7 -15 -16z"/>
<path d="M310 1090 c0 -5 5 -10 10 -10 6 0 10 5 10 10 0 6 -4 10 -10 10 -5 0
-10 -4 -10 -10z"/>
<path d="M17 1023 c-4 -6 -3 -14 3 -18 6 -4 4 -15 -6 -31 -16 -24 -16 -24 17
-25 19 0 101 -3 184 -5 96 -3 146 -1 140 5 -6 5 -32 11 -60 13 -46 3 -50 5
-48 26 2 13 -1 21 -7 17 -6 -3 -10 -15 -10 -26 0 -19 -6 -20 -99 -17 -94 3
-99 4 -84 21 15 15 15 17 0 17 -8 0 -17 8 -19 18 -2 12 -6 13 -11 5z"/>
<path d="M2305 1020 c-3 -5 -1 -10 4 -10 6 0 11 5 11 10 0 6 -2 10 -4 10 -3 0
-8 -4 -11 -10z"/>
<path d="M2370 999 c-10 -17 -14 -18 -27 -7 -14 11 -16 10 -11 -14 4 -23 2
-28 -13 -28 -11 0 -19 4 -19 8 0 4 -13 9 -30 10 -16 1 -30 -1 -30 -5 0 -13
-64 -13 -73 0 -5 7 -6 2 -2 -12 6 -19 4 -23 -9 -18 -8 3 -18 1 -22 -5 -4 -7
-9 -6 -15 3 -8 12 -10 12 -18 0 -6 -9 -11 -10 -15 -2 -4 6 -11 9 -16 6 -5 -3
-11 -1 -15 5 -10 16 -22 12 -28 -10 -5 -19 0 -20 151 -21 87 0 209 -2 272 -4
110 -3 112 -2 75 12 -22 8 -49 17 -60 20 -18 6 -39 29 -40 44 0 7 -32 39 -39
39 -3 0 -10 -9 -16 -21z"/>
<path d="M2080 971 c0 -6 5 -13 10 -16 6 -3 10 1 10 9 0 9 -4 16 -10 16 -5 0
-10 -4 -10 -9z"/>
<path d="M380 885 c0 -8 5 -15 10 -15 6 0 10 7 10 15 0 8 -4 15 -10 15 -5 0
-10 -7 -10 -15z"/>
<path d="M88 853 c5 -24 6 -25 12 -8 8 21 4 35 -9 35 -5 0 -6 -12 -3 -27z"/>
<path d="M232 853 c9 -10 19 -28 22 -40 8 -24 40 -31 52 -12 4 8 0 9 -15 4
-17 -5 -21 -2 -21 16 0 12 -8 28 -17 35 -26 19 -39 17 -21 -3z"/>
<path d="M0 836 c0 -9 5 -16 10 -16 6 0 10 -6 10 -12 1 -13 48 -53 55 -46 10
10 -9 48 -26 53 -10 4 -26 13 -34 21 -13 14 -15 14 -15 0z"/>
<path d="M180 805 c0 -17 16 -20 25 -5 4 6 10 8 15 5 5 -3 11 -1 15 5 4 6 -6
10 -24 10 -21 0 -31 -5 -31 -15z"/>
<path d="M114 778 c3 -18 12 -36 19 -40 9 -6 9 -10 -1 -16 -10 -7 -10 -11 3
-22 13 -11 15 -9 15 10 0 34 -22 100 -33 100 -5 0 -7 -14 -3 -32z"/>
<path d="M220 770 c0 -5 5 -10 10 -10 6 0 10 5 10 10 0 6 -4 10 -10 10 -5 0
-10 -4 -10 -10z"/>
<path d="M15 750 c-8 -13 32 -60 52 -60 19 0 16 18 -4 22 -10 2 -18 12 -18 22
0 22 -20 32 -30 16z"/>
<path d="M440 740 c-8 -5 -11 -12 -7 -16 4 -4 13 -2 19 4 15 15 7 24 -12 12z"/>
<path d="M190 719 c-8 -15 -7 -21 4 -25 8 -3 18 -14 21 -25 4 -10 11 -19 16
-19 6 0 7 9 4 21 -5 15 -4 19 4 15 19 -12 12 2 -14 28 -24 24 -25 24 -35 5z"/>
<path d="M29 650 l23 -20 -22 0 c-30 0 -21 -20 18 -39 17 -9 33 -26 36 -38 4
-15 11 -20 26 -16 24 6 25 16 6 36 -8 8 -11 19 -6 27 10 17 -19 50 -45 50 -16
0 -17 2 -5 10 11 7 6 10 -20 10 l-35 -1 24 -19z"/>
<path d="M131 521 c-9 -16 -8 -22 8 -30 16 -9 18 -8 14 9 -4 16 -2 19 13 14
20 -8 19 -6 -8 14 -14 11 -18 10 -27 -7z"/>
<path d="M0 505 c0 -14 4 -25 9 -25 4 0 6 11 3 25 -2 14 -6 25 -8 25 -2 0 -4
-11 -4 -25z"/>
<path d="M199 493 c-13 -16 -12 -17 4 -4 9 7 17 15 17 17 0 8 -8 3 -21 -13z"/>
<path d="M0 444 c0 -8 5 -12 10 -9 6 3 10 10 10 16 0 5 -4 9 -10 9 -5 0 -10
-7 -10 -16z"/>
<path d="M9 373 c-13 -16 -12 -17 4 -4 9 7 17 15 17 17 0 8 -8 3 -21 -13z"/>
<path d="M701 334 c0 -11 3 -14 6 -6 3 7 2 16 -1 19 -3 4 -6 -2 -5 -13z"/>
<path d="M710 301 c0 -6 4 -13 10 -16 6 -3 7 1 4 9 -7 18 -14 21 -14 7z"/>
<path d="M650 56 c0 -9 5 -16 10 -16 6 0 10 4 10 9 0 6 -4 13 -10 16 -5 3 -10
-1 -10 -9z"/>
</g>
</svg>
